<svg width="28" height="28" viewBox="0 0 28 28" fill="none" xmlns="http://www.w3.org/2000/svg">
<g id="logo-navbar 1" clip-path="url(#clip0_624_2995)">
<mask id="mask0_624_2995" style="mask-type:luminance" maskUnits="userSpaceOnUse" x="0" y="0" width="28" height="28">
<g id="clip0_1350_6936">
<path id="Vector" d="M28 0.736816H0V27.2631H28V0.736816Z" fill="white"/>
</g>
</mask>
<g mask="url(#mask0_624_2995)">
<g id="Group">
<path id="Vector_2" d="M27.3062 14.0586C27.3299 16.5326 26.8826 18.8966 26.0039 21.1552C24.7493 24.3714 21.7413 27.0011 18.9945 24.2019C16.7544 21.9203 16.3387 17.2885 12.9824 16.6105C8.54166 15.9874 8.43481 21.9479 5.53365 22.6212C2.30004 23.3818 1.22744 17.0869 1.27494 14.2281C1.32243 11.3693 1.97945 7.35147 4.78956 7.35147C8.02318 7.35147 8.24087 13.0187 12.3452 12.7117C16.41 12.391 16.4813 6.49474 19.1371 3.97039C21.4286 1.78964 24.124 3.38855 25.4736 6.0137C26.7243 8.44185 27.2745 11.2915 27.3022 14.0586H27.3062Z" fill="#F4FFFF"/>
</g>
</g>
</g>
<defs>
<clipPath id="clip0_624_2995">
<rect width="28" height="28" fill="white"/>
</clipPath>
</defs>
</svg>
